<svg width="12" height="12" viewBox="0 0 12 12" fill="none" xmlns="http://www.w3.org/2000/svg">
<path d="M6 10.5H3V8.5C1 8.5 1 7 1 7V5C1 3.5 3 1.5 4.5 1.5H7.5C9.5 1.5 11 4 11 5C11 6 11 7 11 7C11 7 11 8.5 9 8.5V10.5H6ZM3 6C3 5.66667 3.2 5 4 5C4.8 5 5 5.66667 5 6M7 6C7 5.66667 7.2 5 8 5C8.8 5 9 5.66667 9 6" fill="#AFFFAF"/>
<path d="M7.5 10.5V9M4.5 10.5V9M6 10.5H3V8.5C1 8.5 1 7 1 7V5C1 3.5 3 1.5 4.5 1.5H7.5C9.5 1.5 11 4 11 5C11 6 11 7 11 7C11 7 11 8.5 9 8.5V10.5H6ZM6 10.5V9M3 6C3 5.66667 3.2 5 4 5C4.8 5 5 5.66667 5 6M7 6C7 5.66667 7.2 5 8 5C8.8 5 9 5.66667 9 6" stroke="#62E562"/>
</svg>
