<svg width="12" height="12" viewBox="0 0 12 11" fill="none" xmlns="http://www.w3.org/2000/svg">
<g clip-path="url(#clip0_9_20)">
<path d="M7.5 10V8.5ZM4.5 10V8.5ZM6 10H3V8C1 8 1 6.5 1 6.5V4.5C1 3 3 1 4.5 1H7.5C9.5 1 11 3.5 11 4.5C11 5.5 11 6.5 11 6.5C11 6.5 11 8 9 8V10H6ZM6 10V8.5ZM3 5.5C3 5.16667 3.2 4.5 4 4.5C4.8 4.5 5 5.16667 5 5.5M7 5.5C7 5.16667 7.2 4.5 8 4.5C8.8 4.5 9 5.16667 9 5.5" fill="#FFAFAF"/>
<path d="M7.5 10V8.5M4.5 10V8.5M6 10H3V8C1 8 1 6.5 1 6.5V4.5C1 3 3 1 4.5 1H7.5C9.5 1 11 3.5 11 4.5C11 5.5 11 6.5 11 6.5C11 6.5 11 8 9 8V10H6ZM6 10V8.5M3 5.5C3 5.16667 3.2 4.5 4 4.5C4.8 4.5 5 5.16667 5 5.5M7 5.5C7 5.16667 7.2 4.5 8 4.5C8.8 4.5 9 5.16667 9 5.5" stroke="#E56262"/>
</g>
<defs>
<clipPath id="clip0_9_20">
<rect width="12" height="12" fill="white"/>
</clipPath>
</defs>
</svg>
